<?xml version="1.0" ?><!DOCTYPE svg  PUBLIC '-//W3C//DTD SVG 1.1//EN'  'http://www.w3.org/Graphics/SVG/1.1/DTD/svg11.dtd'><svg enable-background="new 0 0 512 512" id="Layer_1" version="1.1" viewBox="0 0 512 512" xml:space="preserve" xmlns="http://www.w3.org/2000/svg" xmlns:xlink="http://www.w3.org/1999/xlink"><g><circle cx="256" cy="256" fill="#A4C639" r="256"/><g><g><g><path d="M150.1,194.6c-9.6,0-17.4,7.9-17.4,17.7v69.2c0,9.8,7.8,17.7,17.4,17.7c9.6,0,17.4-7.9,17.4-17.7v-69.2      C167.5,202.5,159.7,194.6,150.1,194.6L150.1,194.6z" fill="#FFFFFF"/><path d="M180.2,195.6v125.3c0,7.4,6,13.5,13.5,13.5h15.4v38.2c0,9.7,7.7,17.5,17.3,17.5      c9.5,0,17.3-7.9,17.3-17.5v-38.2h26.9v38.2c0,9.7,7.7,17.5,17.3,17.5c9.5,0,17.3-7.9,17.3-17.5v-38.2h15.4      c7.4,0,13.5-6,13.5-13.5V195.6H180.2L180.2,195.6L180.2,195.6z" fill="#FFFFFF"/><path d="M364.1,194.6c-9.6,0-17.5,7.9-17.5,17.7v69.2c0,9.8,7.8,17.7,17.5,17.7c9.6,0,17.4-7.9,17.4-17.7v-69.3      C381.5,202.5,373.7,194.6,364.1,194.6L364.1,194.6z" fill="#FFFFFF"/><path d="M297.4,131.3l14.6-21.5c2-2.9,1.2-6.8-1.7-8.8c-2.9-2-6.9-1.2-8.8,1.7l-15.9,23.4      c-8.8-3.1-18.4-4.8-28.5-4.8c-10.1,0-19.7,1.8-28.5,4.8l-15.9-23.4c-2-2.9-5.9-3.6-8.8-1.7c-2.9,2-3.6,5.9-1.7,8.8l14.6,21.5      c-20.4,10.9-34.7,29.8-36.6,51.7h153.7C332,161.1,317.8,142.2,297.4,131.3z M224.7,161.7c-4.7,0-8.5-3.8-8.5-8.5      s3.8-8.5,8.5-8.5s8.5,3.8,8.5,8.5S229.4,161.7,224.7,161.7z M290.6,161.7c-4.7,0-8.5-3.8-8.5-8.5s3.8-8.5,8.5-8.5      s8.5,3.8,8.5,8.5S295.3,161.7,290.6,161.7z" fill="#FFFFFF"/></g></g></g></g></svg>