<?xml version="1.0" encoding="UTF-8" standalone="no"?>
<svg
   xmlns:dc="http://purl.org/dc/elements/1.1/"
   xmlns:cc="http://creativecommons.org/ns#"
   xmlns:rdf="http://www.w3.org/1999/02/22-rdf-syntax-ns#"
   xmlns:svg="http://www.w3.org/2000/svg"
   xmlns="http://www.w3.org/2000/svg"
   xmlns:xlink="http://www.w3.org/1999/xlink"
   xmlns:sodipodi="http://sodipodi.sourceforge.net/DTD/sodipodi-0.dtd"
   xmlns:inkscape="http://www.inkscape.org/namespaces/inkscape"
   enable-background="new 0 0 100 100"
   height="100px"
   id="Layer_1"
   version="1.1"
   viewBox="0 0 100 100"
   width="100px"
   xml:space="preserve"
   inkscape:version="0.91 r13725"
   sodipodi:docname="python.svg"><metadata
     id="metadata17"><rdf:RDF><cc:Work
         rdf:about=""><dc:format>image/svg+xml</dc:format><dc:type
           rdf:resource="http://purl.org/dc/dcmitype/StillImage" /><dc:title></dc:title></cc:Work></rdf:RDF></metadata><defs
     id="defs15"><linearGradient
       gradientUnits="userSpaceOnUse"
       y2="131.85291"
       x2="110.14919"
       y1="77.070274"
       x1="55.549179"
       id="linearGradient9521"
       xlink:href="#linearGradient9515"
       inkscape:collect="always" /><linearGradient
       id="linearGradient9515"
       inkscape:collect="always"><stop
         id="stop9517"
         offset="0"
         style="stop-color:#387eb8;stop-opacity:1" /><stop
         id="stop9519"
         offset="1"
         style="stop-color:#366994;stop-opacity:1" /></linearGradient><linearGradient
       gradientUnits="userSpaceOnUse"
       y2="168.1012"
       x2="147.77737"
       y1="111.92053"
       x1="89.136749"
       id="linearGradient11307"
       xlink:href="#linearGradient11301"
       inkscape:collect="always" /><linearGradient
       id="linearGradient11301"
       inkscape:collect="always"><stop
         id="stop11303"
         offset="0"
         style="stop-color:#ffe052;stop-opacity:1" /><stop
         id="stop11305"
         offset="1"
         style="stop-color:#ffc331;stop-opacity:1" /></linearGradient></defs><sodipodi:namedview
     pagecolor="#ffffff"
     bordercolor="#666666"
     borderopacity="1"
     objecttolerance="10"
     gridtolerance="10"
     guidetolerance="10"
     inkscape:pageopacity="0"
     inkscape:pageshadow="2"
     inkscape:window-width="1366"
     inkscape:window-height="719"
     id="namedview13"
     showgrid="false"
     inkscape:zoom="2.36"
     inkscape:cx="50"
     inkscape:cy="50"
     inkscape:window-x="0"
     inkscape:window-y="25"
     inkscape:window-maximized="1"
     inkscape:current-layer="Layer_1" /><g
     id="g3"
     style="fill:#9cc4e5;fill-opacity:1"><circle
       cx="50"
       cy="50"
       fill="#3A66AF"
       r="45"
       id="circle5"
       style="fill:#9cc4e5;fill-opacity:1" /><g
       id="g7"
       style="fill:#9cc4e5;fill-opacity:1"><path
         d="M39.636,33.353c-2.925,0-5.731,0.059-7.62,0.148c-0.236,0-0.649,0.148-0.649,0.356v31.929    c0,0.268,0.117,0.355,0.355,0.355h4.516c0.269,0,0.356-0.119,0.356-0.355V54.371c0.797,0,1.182,0.059,2.303,0.059    c6.675,0,12.108-3.24,12.108-10.791C51.005,37.871,47.814,33.353,39.636,33.353z M39.015,49.703c-1.18,0-1.712,0-2.392-0.061    V38.168c0.532-0.029,1.653-0.089,2.835-0.089c3.929,0,6.261,1.902,6.261,5.678C45.719,48.484,42.471,49.703,39.015,49.703z"
         fill="#FFFFFF"
         id="path9"
         style="fill:#9cc4e5;fill-opacity:1" /><path
         d="M62.552,51.724c-3.131-1.635-3.661-2.379-3.661-3.449c0-0.98,0.798-2.168,3.129-2.168    c1.921,0,3.84,0.504,5.14,1.336c0.296,0.09,0.441-0.059,0.441-0.295v-4.074c0-0.208-0.058-0.445-0.293-0.594    c-0.974-0.446-2.747-0.833-5.288-0.833c-5.168,0-8.15,3.181-8.15,7.015c0,3.42,1.741,5.471,5.936,7.492    c2.984,1.545,3.662,2.498,3.662,3.568c0,1.336-0.974,2.316-3.307,2.316c-1.949,0-4.076-0.533-5.937-1.752    c-0.206-0.148-0.354-0.061-0.354,0.238v4.369c0,0.238,0.03,0.387,0.236,0.477c1.271,0.74,3.484,1.277,6.055,1.277    c4.872,0,8.475-2.557,8.475-7.314C68.635,56.154,67.188,53.984,62.552,51.724z"
         fill="#FFFFFF"
         id="path11"
         style="fill:#9cc4e5;fill-opacity:1" /></g></g><rect
     style="fill:#9cc4e5;fill-opacity:1;fill-rule:nonzero;stroke:none;stroke-width:2.5999999;stroke-miterlimit:4;stroke-dasharray:none;stroke-opacity:1"
     id="rect4171"
     width="56.779659"
     height="56.35593"
     x="21.305084"
     y="20.457626" /><g
     id="g1894"
     transform="matrix(0.49852798,0,0,0.49852798,1.5054673,-12.829297)"><path
       inkscape:connector-curvature="0"
       style="color:#000000;display:inline;overflow:visible;visibility:visible;opacity:1;fill:url(#linearGradient9521);fill-opacity:1;fill-rule:nonzero;stroke:none;stroke-width:1;stroke-linecap:butt;stroke-linejoin:miter;stroke-miterlimit:4;stroke-dasharray:none;stroke-dashoffset:0;stroke-opacity:1;marker:none;marker-start:none;marker-mid:none;marker-end:none"
       d="M 99.75,67.46875 C 71.718268,67.468752 73.46875,79.625 73.46875,79.625 L 73.5,92.21875 l 26.75,0 0,3.78125 -37.375,0 c 0,0 -17.9375,-2.034276 -17.9375,26.25 -2e-6,28.28427 15.65625,27.28125 15.65625,27.28125 l 9.34375,0 0,-13.125 c 0,0 -0.503652,-15.65625 15.40625,-15.65625 15.9099,0 26.53125,0 26.53125,0 0,0 14.90625,0.24096 14.90625,-14.40625 0,-14.647206 0,-24.21875 0,-24.21875 0,-2e-6 2.26318,-14.65625 -27.03125,-14.65625 z M 85,75.9375 c 2.661429,-2e-6 4.8125,2.151071 4.8125,4.8125 2e-6,2.661429 -2.151071,4.8125 -4.8125,4.8125 -2.661429,2e-6 -4.8125,-2.151071 -4.8125,-4.8125 -2e-6,-2.661429 2.151071,-4.8125 4.8125,-4.8125 z"
       id="path8615" /><path
       inkscape:connector-curvature="0"
       id="path8620"
       d="m 100.5461,177.31485 c 28.03174,0 26.28125,-12.15625 26.28125,-12.15625 l -0.0312,-12.59375 -26.75,0 0,-3.78125 37.375,0 c 0,0 17.9375,2.03427 17.9375,-26.25001 10e-6,-28.284267 -15.65625,-27.281247 -15.65625,-27.281247 l -9.34375,0 0,13.124997 c 0,0 0.50366,15.65625 -15.40625,15.65625 -15.909902,0 -26.531252,0 -26.531252,0 0,0 -14.90625,-0.24096 -14.90625,14.40626 0,14.6472 0,24.21875 0,24.21875 0,0 -2.26318,14.65625 27.031252,14.65625 z m 14.75,-8.46875 c -2.66143,0 -4.8125,-2.15107 -4.8125,-4.8125 0,-2.66143 2.15107,-4.8125 4.8125,-4.8125 2.66143,0 4.8125,2.15107 4.8125,4.8125 1e-5,2.66143 -2.15107,4.8125 -4.8125,4.8125 z"
       style="color:#000000;display:inline;overflow:visible;visibility:visible;opacity:1;fill:url(#linearGradient11307);fill-opacity:1;fill-rule:nonzero;stroke:none;stroke-width:1;stroke-linecap:butt;stroke-linejoin:miter;stroke-miterlimit:4;stroke-dasharray:none;stroke-dashoffset:0;stroke-opacity:1;marker:none;marker-start:none;marker-mid:none;marker-end:none" /></g></svg>